# xmcd
#
# Track frame offsets:
#	150
#	20411
#	46887
#	74979
#
# Disc length: 1416 seconds
# Revision: 0
# Processed by: cddbd v1.5.2PL0 Copyright (c) Steve Scherf et al.
# Submitted via: dBpowerAMP V12.0
#
DISCID=35058604
DTITLE=The Woodrunners - The Woodrunners
DYEAR=2010
DGENRE=Canadian
TTITLE0=Shallow Roots
TTITLE1=Silversprings
TTITLE2=Langway
TTITLE3=The Delicate King
EXTD=
EXTT0=
EXTT1=
EXTT2=
EXTT3=
PLAYORDER=
